<svg width="101" height="100" viewBox="0 0 101 100" fill="none" xmlns="http://www.w3.org/2000/svg">
<g clip-path="url(#clip0_1_2)" filter="url(#filter0_d_1_2)">
<path d="M58.5453 72.1194C51.0522 74.5787 41.2582 77.2477 41.2582 77.2477L19.728 81.0622L38.525 66.9426L42.991 63.6836L18.354 49.4501L4.68701 38.7153L54.9175 47.5551L72.8993 19.7852L83.5106 8.78042L75.1176 43.5065C75.1176 43.5065 80.1593 41.4485 83.5106 40.9568C87.7737 40.3312 94.485 41.4795 94.485 41.4795L86.0407 52.0621C86.0407 52.0621 79.8044 58.281 75.062 62.1378C69.9783 66.2721 65.2438 69.9208 58.5453 72.1194Z" fill="url(#paint0_linear_1_2)"/>
<path d="M59.1462 68.5346C53.9059 70.2546 47.0565 72.1211 47.0565 72.1211L31.9994 74.7888L45.1451 64.9143L48.2683 62.6351L31.0385 52.6809L21.4805 45.1736L56.6091 51.3556L69.1846 31.9348L76.6057 24.2386L70.736 48.5243C70.736 48.5243 74.2619 47.085 76.6057 46.7411C79.587 46.3037 84.2806 47.1067 84.2806 47.1067L78.3751 54.5076C78.3751 54.5076 74.0138 58.8568 70.6971 61.554C67.1419 64.4454 63.8308 66.9971 59.1462 68.5346Z" fill="#202020"/>
</g>
<defs>
<filter id="filter0_d_1_2" x="-3" y="0" width="108" height="108" filterUnits="userSpaceOnUse" color-interpolation-filters="sRGB">
<feFlood flood-opacity="0" result="BackgroundImageFix"/>
<feColorMatrix in="SourceAlpha" type="matrix" values="0 0 0 0 0 0 0 0 0 0 0 0 0 0 0 0 0 0 127 0" result="hardAlpha"/>
<feOffset dy="4"/>
<feGaussianBlur stdDeviation="2"/>
<feComposite in2="hardAlpha" operator="out"/>
<feColorMatrix type="matrix" values="0 0 0 0 0 0 0 0 0 0 0 0 0 0 0 0 0 0 0.25 0"/>
<feBlend mode="normal" in2="BackgroundImageFix" result="effect1_dropShadow_1_2"/>
<feBlend mode="normal" in="SourceGraphic" in2="effect1_dropShadow_1_2" result="shape"/>
</filter>
<linearGradient id="paint0_linear_1_2" x1="41.5476" y1="18.0503" x2="69.0152" y2="67.0446" gradientUnits="userSpaceOnUse">
<stop stop-color="#FF5900"/>
<stop offset="1" stop-color="#5E00FF"/>
</linearGradient>
<clipPath id="clip0_1_2">
<rect width="100" height="100" fill="white" transform="translate(1)"/>
</clipPath>
</defs>
</svg>
